# xmcd
#
# Track frame offsets:
#	150
#	10342
#	31225
#	47055
#	77848
#	88898
#	115219
#	129762
#	147707
#	163663
#
# Disc length: 2333 seconds
#
# Revision: 15
# Processed by: cddbd v1.5PL3 Copyright (c) Steve Scherf et al.
# Submitted via: dBpowerAMP V4.0
#
DISCID=81091b0a
DTITLE=Stevie Ray Vaughan and Double Trouble - The Sky Is Crying
DYEAR=1991
DGENRE=Blues
TTITLE0=Boot Hill
TTITLE1=The Sky is Crying
TTITLE2=Empty Arms
TTITLE3=Little Wing
TTITLE4=Wham
TTITLE5=May I Have a Talk With You
TTITLE6=Close to You
TTITLE7=Chitlins Con Carne
TTITLE8=So Excited
TTITLE9=Life by the Drop
EXTD=
EXTT0=
EXTT1=
EXTT2=
EXTT3=
EXTT4=
EXTT5=
EXTT6=
EXTT7=
EXTT8=
EXTT9=
PLAYORDER=
